<svg height="760" viewBox="0 0 3585 760" width="3585" xmlns="http://www.w3.org/2000/svg"><g fill="none" fill-rule="evenodd" stroke="#3b3b3b" stroke-linecap="square" stroke-width="3" transform="translate(2 2)"><path d="m476.5 1.1953125-95.609375 95.609375"/><path d="m587.5 1.1953125-95.609375 95.609375"/><path d="m144.5 1.1953125-95.609375 95.609375"/><path d="m697.5 1.1953125-95.609375 95.609375"/><path d="m254.5 1.1953125-95.609375 95.609375"/><path d="m808.5 1.1953125-95.609375 95.609375"/><path d="m365.5 1.1953125-95.609375 95.609375"/><path d="m899.5 1.1953125-75.609375 95.609375"/><path d="m990.5.5-75.609375 95.609375"/><path d="m1080.5.5-75.60938 95.609375"/><path d="m1155.19531 1.1953125-59.30469 94.9140625"/><path d="m1230.19531 1.34765625-59.30469 94.91406255"/><path d="m1305.19531 1.34765625-59.30469 94.91406255"/><path d="m1369.84766 1.34765625-49.95704 94.91406255"/><path d="m1434.84766 1.34765625-49.95704 94.91406255"/><path d="m1509.84766 1.34765625-49.95704 94.91406255"/><path d="m1574.02148 1.34765625-21.13086 94.91406255"/><path d="m1640.02148 1.34765625-21.13086 94.91406255"/><path d="m1708.08691 1.34765625-21.13086 94.91406255"/><path d="m1762.93457 1.34765625 1.95605 94.91406255"/><path d="m1829.93457 1.34765625 1.95605 94.91406255"/><path d="m1895.93457 1.34765625 1.95605 94.91406255"/><path d="m1965.4126 1.34765625 1.95605 94.91406255"/><path d="m2035.4126 1.34765625 1.95605 94.91406255"/><path d="m2105.4126 1.34765625 1.95605 94.91406255"/><path d="m3572.5 3.1640625-95.60938 95.609375" transform="matrix(-1 0 0 1 7049 0)"/><path d="m3461.5 3.1640625-75.60938 95.609375" transform="matrix(-1 0 0 1 6847 0)"/><path d="m3370.5 2.46875-75.60938 95.609375" transform="matrix(-1 0 0 1 6665 0)"/><path d="m3280.5 2.46875-75.60938 95.609375" transform="matrix(-1 0 0 1 6485 0)"/><path d="m3189.19531 3.1640625-59.30469 94.9140625" transform="matrix(-1 0 0 1 6319 0)"/><path d="m3114.19531 3.31640625-59.30469 94.91406255" transform="matrix(-1 0 0 1 6169 0)"/><path d="m3039.19531 3.31640625-59.30469 94.91406255" transform="matrix(-1 0 0 1 6019 0)"/><path d="m2965.84766 3.31640625-49.95704 94.91406255" transform="matrix(-1 0 0 1 5881 0)"/><path d="m2900.84766 3.31640625-49.95704 94.91406255" transform="matrix(-1 0 0 1 5751 0)"/><path d="m2825.84766 3.31640625-49.95704 94.91406255" transform="matrix(-1 0 0 1 5601 0)"/><path d="m2732.02148 3.31640625-21.13086 94.91406255" transform="matrix(-1 0 0 1 5443 0)"/><path d="m2666.02148 3.31640625-21.13086 94.91406255" transform="matrix(-1 0 0 1 5311 0)"/><path d="m2597.95605 3.31640625-21.13085 94.91406255" transform="matrix(-1 0 0 1 5174.86914 0)"/><path d="m2520.93457 3.31640625 1.95605 94.91406255" transform="matrix(-1 0 0 1 5043 0)"/><path d="m2453.93457 3.31640625 1.95605 94.91406255" transform="matrix(-1 0 0 1 4909 0)"/><path d="m2387.93457 3.31640625 1.95605 94.91406255" transform="matrix(-1 0 0 1 4777 0)"/><path d="m2318.45654 3.31640625 1.95606 94.91406255" transform="matrix(-1 0 0 1 4638.043946 0)"/><path d="m2248.45654 3.31640625 1.95606 94.91406255" transform="matrix(-1 0 0 1 4498.043946 0)"/><path d="m2178.45654 3.31640625 1.95606 94.91406255" transform="matrix(-1 0 0 1 4358.043946 0)"/><path d="m103.5 329.5-75.609375 95.609375"/><path d="m193.5 329.5-75.609375 95.609375"/><path d="m268.195312 330.195312-59.304687 94.914063"/><path d="m343.195312 330.347656-59.304687 94.914063"/><path d="m418.195312 330.347656-59.304687 94.914063"/><path d="m482.847656 330.347656-49.957031 94.914063"/><path d="m547.847656 330.347656-49.957031 94.914063"/><path d="m622.847656 330.347656-49.957031 94.914063"/><path d="m687.021484 330.347656-21.130859 94.914063"/><path d="m753.021484 330.347656-21.130859 94.914063"/><path d="m821.086914 330.347656-21.130859 94.914063"/><path d="m875.93457 330.347656 1.956055 94.914063"/><path d="m942.93457 330.347656 1.956055 94.914063"/><path d="m1008.93457 330.347656 1.95605 94.914063"/><path d="m1078.4126 330.347656 1.95605 94.914063"/><path d="m1148.4126 330.347656 1.95605 94.914063"/><path d="m1218.4126 330.347656 1.95605 94.914063"/><path d="m2361.5 659.195312-95.60938 95.609376" transform="matrix(-1 0 0 1 4627 0)"/><path d="m1807.5 659.195312-95.60938 95.609376" transform="matrix(-1 0 0 1 3519 0)"/><path d="m2250.5 659.195312-95.60938 95.609376" transform="matrix(-1 0 0 1 4405 0)"/><path d="m1696.5 659.195312-95.60938 95.609376" transform="matrix(-1 0 0 1 3297 0)"/><path d="m2139.5 659.195312-95.60938 95.609376" transform="matrix(-1 0 0 1 4183 0)"/><path d="m1586.5 659.195312-95.60938 95.609376" transform="matrix(-1 0 0 1 3077 0)"/><path d="m2029.5 659.195312-95.60938 95.609376" transform="matrix(-1 0 0 1 3963 0)"/><path d="m1475.5 659.195312-95.60938 95.609376" transform="matrix(-1 0 0 1 2855 0)"/><path d="m1918.5 659.195312-95.60938 95.609376" transform="matrix(-1 0 0 1 3741 0)"/><path d="m1364.5 659.195312-75.60938 95.609376" transform="matrix(-1 0 0 1 2653 0)"/><path d="m1273.5 658.5-75.60938 95.609375" transform="matrix(-1 0 0 1 2471 0)"/><path d="m1183.5 658.5-75.60938 95.609375" transform="matrix(-1 0 0 1 2291 0)"/><path d="m1092.19531 659.195312-59.30469 94.914063" transform="matrix(-1 0 0 1 2125 0)"/><path d="m1017.19531 659.347656-59.304685 94.914063" transform="matrix(-1 0 0 1 1975 0)"/><path d="m942.195312 659.347656-59.304687 94.914063" transform="matrix(-1 0 0 1 1825 0)"/><path d="m868.847656 659.347656-49.957031 94.914063" transform="matrix(-1 0 0 1 1687 0)"/><path d="m803.847656 659.347656-49.957031 94.914063" transform="matrix(-1 0 0 1 1557 0)"/><path d="m728.847656 659.347656-49.957031 94.914063" transform="matrix(-1 0 0 1 1407 0)"/><path d="m635.021484 659.347656-21.130859 94.914063" transform="matrix(-1 0 0 1 1249 0)"/><path d="m569.021484 659.347656-21.130859 94.914063" transform="matrix(-1 0 0 1 1117 0)"/><path d="m500.956055 659.347656-21.13086 94.914063" transform="matrix(-1 0 0 1 980.86914 0)"/><path d="m423.93457 659.347656 1.956055 94.914063" transform="matrix(-1 0 0 1 849 0)"/><path d="m356.93457 659.347656 1.956055 94.914063" transform="matrix(-1 0 0 1 715 0)"/><path d="m290.93457 659.347656 1.956055 94.914063" transform="matrix(-1 0 0 1 583 0)"/><path d="m221.456543 659.347656 1.956055 94.914063" transform="matrix(-1 0 0 1 444.043946 0)"/><path d="m151.456543 659.347656 1.956055 94.914063" transform="matrix(-1 0 0 1 304.043946 0)"/><path d="m81.456543 659.347656 1.9560547 94.914063" transform="matrix(-1 0 0 1 164.043946 0)"/><path d="m3358.5 659.375-95.60938 95.609375" transform="matrix(-1 0 0 1 6621 0)"/><path d="m2804.5 659.375-95.60938 95.609375" transform="matrix(-1 0 0 1 5513 0)"/><path d="m3247.5 659.375-95.60938 95.609375" transform="matrix(-1 0 0 1 6399 0)"/><path d="m3580.5 659.5-95.60938 95.609375" transform="matrix(-1 0 0 1 7065 0)"/><path d="m2693.5 659.375-95.60938 95.609375" transform="matrix(-1 0 0 1 5291 0)"/><path d="m3136.5 659.375-95.60938 95.609375" transform="matrix(-1 0 0 1 6177 0)"/><path d="m3469.5 659.5-95.60938 95.609375" transform="matrix(-1 0 0 1 6843 0)"/><path d="m2583.5 659.375-95.60938 95.609375" transform="matrix(-1 0 0 1 5071 0)"/><path d="m3026.5 659.375-95.60938 95.609375" transform="matrix(-1 0 0 1 5957 0)"/><path d="m2472.5 659.375-95.60938 95.609375" transform="matrix(-1 0 0 1 4849 0)"/><path d="m2915.5 659.375-95.60938 95.609375" transform="matrix(-1 0 0 1 5735 0)"/><path d="m3572.5 330.195312-95.60938 95.609376" transform="matrix(-1 0 0 1 7049 0)"/><path d="m3018.5 330.195312-95.60938 95.609376" transform="matrix(-1 0 0 1 5941 0)"/><path d="m3461.5 330.195312-95.60938 95.609376" transform="matrix(-1 0 0 1 6827 0)"/><path d="m2907.5 330.195312-95.60938 95.609376" transform="matrix(-1 0 0 1 5719 0)"/><path d="m3350.5 330.195312-95.60938 95.609376" transform="matrix(-1 0 0 1 6605 0)"/><path d="m2797.5 330.195312-95.60938 95.609376" transform="matrix(-1 0 0 1 5499 0)"/><path d="m3240.5 330.195312-95.60938 95.609376" transform="matrix(-1 0 0 1 6385 0)"/><path d="m2686.5 330.195312-95.60938 95.609376" transform="matrix(-1 0 0 1 5277 0)"/><path d="m3129.5 330.195312-95.60938 95.609376" transform="matrix(-1 0 0 1 6163 0)"/><path d="m2575.5 330.195312-75.60938 95.609376" transform="matrix(-1 0 0 1 5075 0)"/><path d="m2484.5 329.5-75.60938 95.609375" transform="matrix(-1 0 0 1 4893 0)"/><path d="m2394.5 329.5-75.60938 95.609375" transform="matrix(-1 0 0 1 4713 0)"/><path d="m2303.19531 330.195312-59.30469 94.914063" transform="matrix(-1 0 0 1 4547 0)"/><path d="m2228.19531 330.347656-59.30469 94.914063" transform="matrix(-1 0 0 1 4397 0)"/><path d="m2153.19531 330.347656-59.30469 94.914063" transform="matrix(-1 0 0 1 4247 0)"/><path d="m2079.84766 330.347656-49.95704 94.914063" transform="matrix(-1 0 0 1 4109 0)"/><path d="m2014.84766 330.347656-49.95704 94.914063" transform="matrix(-1 0 0 1 3979 0)"/><path d="m1939.84766 330.347656-49.95704 94.914063" transform="matrix(-1 0 0 1 3829 0)"/><path d="m1846.02148 330.347656-21.13086 94.914063" transform="matrix(-1 0 0 1 3671 0)"/><path d="m1780.02148 330.347656-21.13086 94.914063" transform="matrix(-1 0 0 1 3539 0)"/><path d="m1711.95605 330.347656-21.13085 94.914063" transform="matrix(-1 0 0 1 3402.86914 0)"/><path d="m1634.93457 330.347656 1.95605 94.914063" transform="matrix(-1 0 0 1 3271 0)"/><path d="m1567.93457 330.347656 1.95605 94.914063" transform="matrix(-1 0 0 1 3137 0)"/><path d="m1501.93457 330.347656 1.95605 94.914063" transform="matrix(-1 0 0 1 3005 0)"/><path d="m1432.45654 330.347656 1.95606 94.914063" transform="matrix(-1 0 0 1 2866.043946 0)"/><path d="m1362.45654 330.347656 1.95606 94.914063" transform="matrix(-1 0 0 1 2726.043946 0)"/><path d="m1292.45654 330.347656 1.95606 94.914063" transform="matrix(-1 0 0 1 2586.043946 0)"/><path d="m106.347656 205.15625-99.30468725 38.15625"/><path d="m231.195312 204.6875-99.304687 38.15625"/><path d="m357.195312 205.6875-99.304687 38.15625"/><path d="m451.347656 188.15625-85.457031 63.6875"/><path d="m545.423828 188.421875-85.457031 63.6875"/><path d="m631.423828 188.421875-85.457031 63.6875"/><path d="m705.042969 186.15625-66.076172 71.953125"/><path d="m788.352539 186.289062-66.076172 71.953126"/><path d="m870.352539 186.289062-66.076172 71.953126"/><path d="m953.352539 186.289062-66.076172 71.953126"/><path d="m1023.34766 189.15625-40.071293 68.085938"/><path d="m1104.34521 190.222656-40.07128 68.085938"/><path d="m1182.34521 190.070312-40.07128 68.085938"/><path d="m1248.34766 191.15625-25.07373 68.152344"/><path d="m1314.34888 191.689453-25.07373 68.152344"/><path d="m1377.34888 191.689453-25.07373 68.152344"/><path d="m1427.34766 191.15625v68.952148"/><path d="m1495.84705 191.422852-.07251 68.685546"/><path d="m1563.84705 191.422852-.07251 68.685546"/><path d="m1631.84705 191.422852-.07251 68.685546"/><path d="m729.542969 572.109375h-78.652344"/><path d="m849.390625 572.109375h-78.652344"/><path d="m969.390625 572.109375h-78.652344"/><path d="m1109.34766 550.5-99.60938 21.609375"/><path d="m1235.65234 551.453125-99.60937 21.609375"/><path d="m1361.65234 547.1875-99.60937 21.609375"/><path d="m1486.34766 534.5-99.30469 38.15625"/><path d="m1611.19531 534.03125-99.30469 38.15625"/><path d="m1737.19531 535.03125-99.30469 38.15625"/><path d="m1831.34766 517.5-85.45704 63.6875"/><path d="m1925.42383 517.765625-85.45703 63.6875"/><path d="m2011.42383 517.765625-85.45703 63.6875"/><path d="m2085.04297 515.5-66.07617 71.953125"/><path d="m2168.35254 515.632812-66.07617 71.953126"/><path d="m2250.35254 515.632812-66.07617 71.953126"/><path d="m2333.35254 515.632812-66.07617 71.953126"/><path d="m2403.34766 518.5-40.07129 68.085938"/><path d="m2484.34521 519.566406-40.07128 68.085938"/><path d="m2562.34521 519.414062-40.07128 68.085938"/><path d="m2628.34766 520.5-25.07373 68.152344"/><path d="m2694.34888 521.033203-25.07373 68.152344"/><path d="m2757.34888 521.033203-25.07373 68.152344"/><path d="m2807.34766 520.5v68.952148"/><path d="m3079.96313 521.423828v68.952149"/><path d="m3351.96313 521.423828v68.952149"/><path d="m2875.84705 520.766602-.07251 68.685546"/><path d="m3148.46252 521.69043-.07251 68.685547"/><path d="m3420.46252 521.69043-.07251 68.685547"/><path d="m2943.84705 520.766602-.07251 68.685546"/><path d="m3216.46252 521.69043-.07251 68.685547"/><path d="m3488.46252 521.69043-.07251 68.685547"/><path d="m3011.84705 520.766602-.07251 68.685546"/><path d="m3284.46252 521.69043-.07251 68.685547"/><path d="m3556.46252 521.69043-.07251 68.685547"/><path d="m3581.34766 222.109375-99.60938 21.609375" transform="matrix(-1 0 0 1 7062.695312 0)"/><path d="m3455.34766 217.84375-99.60938 21.609375" transform="matrix(-1 0 0 1 6810.695312 0)"/><path d="m3330.04297 205.15625-99.30469 38.15625" transform="matrix(-1 0 0 1 6560.695312 0)"/><path d="m3205.19531 204.6875-99.30469 38.15625" transform="matrix(-1 0 0 1 6311 0)"/><path d="m3079.19531 205.6875-99.30469 38.15625" transform="matrix(-1 0 0 1 6059 0)"/><path d="m2971.34766 188.15625-85.45704 63.6875" transform="matrix(-1 0 0 1 5857 0)"/><path d="m2877.27148 188.421875-85.45703 63.6875" transform="matrix(-1 0 0 1 5668.847656 0)"/><path d="m2791.27148 188.421875-85.45703 63.6875" transform="matrix(-1 0 0 1 5496.847656 0)"/><path d="m2698.89062 186.15625-66.07617 71.953125" transform="matrix(-1 0 0 1 5330.847656 0)"/><path d="m2615.58105 186.289062-66.07617 71.953126" transform="matrix(-1 0 0 1 5164.228516 0)"/><path d="m2533.58105 186.289062-66.07617 71.953126" transform="matrix(-1 0 0 1 5000.228516 0)"/><path d="m2450.58105 186.289062-66.07617 71.953126" transform="matrix(-1 0 0 1 4834.228516 0)"/><path d="m2354.57617 189.15625-40.07129 68.085938" transform="matrix(-1 0 0 1 4668.228516 0)"/><path d="m2273.57861 190.222656-40.07129 68.085938" transform="matrix(-1 0 0 1 4506.233398 0)"/><path d="m2195.57861 190.070312-40.07129 68.085938" transform="matrix(-1 0 0 1 4350.233398 0)"/><path d="m2114.58105 191.15625-25.07373 68.152344" transform="matrix(-1 0 0 1 4203.233398 0)"/><path d="m2048.57983 191.689453-25.07373 68.152344" transform="matrix(-1 0 0 1 4071.230958 0)"/><path d="m1985.57983 191.689453-25.07373 68.152344" transform="matrix(-1 0 0 1 3945.230958 0)"/><path d="m1909.57861 191.15625v68.952148" transform="matrix(-1 0 0 1 3819.230958 0)"/><path d="m1841.07922 191.422852-.07251 68.685546" transform="matrix(-1 0 0 1 3682.232178 0)"/><path d="m1773.07922 191.422852-.07251 68.685546" transform="matrix(-1 0 0 1 3546.232178 0)"/><path d="m1705.07922 191.422852-.07251 68.685546" transform="matrix(-1 0 0 1 3410.232178 0)"/><path d="m602.652344 550.15625-99.609375 21.609375" transform="matrix(-1 0 0 1 1105.304688 0)"/><path d="m476.347656 551.109375-99.609375 21.609375" transform="matrix(-1 0 0 1 852.695312 0)"/><path d="m350.347656 546.84375-99.609375 21.609375" transform="matrix(-1 0 0 1 600.695312 0)"/><path d="m225.042969 534.15625-99.304688 38.15625" transform="matrix(-1 0 0 1 350.695312 0)"/><path d="m100.195312 533.6875-99.304687 38.15625" transform="matrix(-1 0 0 1 101 0)"/></g></svg>